<?xml version="1.0" encoding="UTF-8"?>
<svg version="1.1" viewBox="0 0 1500 1265" width="1280" height="1280" xmlns="http://www.w3.org/2000/svg">
<path transform="translate(207)" d="m0 0 9 6 18 13 20 14 17 12 18 13 20 14 17 12 18 13 19 13 15 11 20 14 18 13 30 21h1l-20-102 1-3 17 12 24 16 17 12 24 16 14 10 24 16 14 10 24 16 14 10 24 16 8 5-9-90v-8l9 6 18 14 20 15 18 14 26 20 2 2 16 167 9 73v7l-9-3-37-15-39-16-129-53-9-4 3 58v9l-6-2-23-12-35-18-85-44-23-12-35-18-83-43-1-1-23-240z" fill="#D05D35"/>
<path transform="translate(216,265)" d="m0 0 5 2 42 21 19 10 47 24 82 42 80 41 15 8v3l-50 32-4 3 22 14 24 15 57 36 24 15 38 24 24 15 14 9-3 3-48 26-29 16-17 10-52 30-24 14-26 15-17 10-27-8-81-25-3-1v-2l25-14 24-14 35-20-3-2-210-77-18-7 1-2 36-16 32-15 27-12-3-2-61-21-92-32-95-33-25-9 4-4 28-16 24-14 104-60 24-14 26-15z" fill="#D05D35"/>
<path transform="translate(1282,265)" d="m0 0 5 2 18 10 24 14 52 30 24 14 78 45 15 9 1 2-92 32-92 32-92 32 2 2 33 15 35 16 25 11 1 2-29 11-58 21-46 17-98 36 5 4 18 10 24 14 25 14 12 7v2l-51 16-59 18-11-6-26-15-15-9-29-17-22-13-21-12-28-15-22-12-26-14-17-10 3-3 38-24 24-15 38-24 24-15 38-24 24-15 14-9-15-10-22-14-18-12 4-4 38-19 19-10 24-12 19-10 20-10 19-10 22-11 19-10 20-10 19-10 20-10 19-10 22-11z" fill="#D05D35"/>
<path transform="translate(1292)" d="m0 0h1l-1 19-22 230-19 10-85 44-33 17-23 12-116 60-13 7h-2l1-30 2-37-28 12-193 79h-2l1-15 12-97 12-135 8-7 20-15 18-14 34-26 12-9h1l-1 18-8 80 11-7 24-16 14-10 24-16 17-12 24-16 14-10 24-16 14-10 24-16 13-9 2 1-20 103 7-4 18-13 34-24 18-13 19-13 15-11 51-36 18-13 19-13 15-11 20-14z" fill="#D05D35"/>
<path transform="translate(666,588)" d="m0 0 2 4 18 233 1 3 25-14 21-12 10-6h2v31l-3 276-1 20-10 7-18 11-38 24-24 15-57 36-24 15-19 12-20 13h-1l1-13 38-252 3-20v-5l-16 12-14 11-18 14-13 10-18 14-5 3 1-14 31-231-12 7-17 11-41 26-13 8-1-4 20-106 2-5 19-12 26-16 24-15 47-29 43-29 39-26z" fill="#D05D35"/>
<path transform="translate(845,595)" d="m0 0 5 2 17 12 16 11 43 30 30 20 25 16 17 11 25 16 20 13 10 7 8 45 11 65v5l-11-7-38-25-33-22h-1l28 242v3l-4-2-14-11-16-13-14-11-17-14-14-11-5-4 10 77 28 211v3l-5-2-165-108-29-19-10-7v-112l1-141 1-74 12 6 20 12 22 13 4 2 22-231z" fill="#D05D35"/>
</svg>
